<?xml version="1.0" standalone="no"?>
<!DOCTYPE svg PUBLIC "-//W3C//DTD SVG 20010904//EN"
 "http://www.w3.org/TR/2001/REC-SVG-20010904/DTD/svg10.dtd">
<svg version="1.0" xmlns="http://www.w3.org/2000/svg"
 width="300.000000pt" height="300.000000pt" viewBox="0 0 300.000000 300.000000"
 preserveAspectRatio="xMidYMid meet">
<metadata>
Created by potrace 1.11, written by Peter Selinger 2001-2013
</metadata>
<g transform="translate(0.000000,300.000000) scale(0.100000,-0.100000)"
fill="#000000" stroke="none">
<path d="M0 1500 l0 -1500 1500 0 1500 0 0 1500 0 1500 -1500 0 -1500 0 0
-1500z m1498 642 c2 -80 0 -97 -31 -178 l-34 -89 -54 -8 c-30 -5 -132 -7 -226
-5 l-173 4 0 -368 0 -368 260 0 260 0 0 -179 c0 -154 -2 -180 -16 -185 -9 -3
-199 -5 -422 -4 -455 3 -454 3 -510 76 l-27 35 -3 614 c-2 555 -1 617 14 649
22 46 72 83 124 92 23 4 220 6 438 5 l397 -2 3 -89z m1100 88 c9 0 12 -25 12
-89 0 -77 -4 -101 -34 -177 -25 -66 -40 -90 -57 -97 -13 -5 -115 -7 -227 -5
l-202 3 0 -117 0 -118 225 0 225 0 0 -185 0 -185 -225 0 -225 0 -2 -247 -3
-248 -227 -1 -228 -1 0 733 0 733 23 3 c16 2 569 1 945 -2z"/>
</g>
</svg>
