<?xml version="1.0" encoding="utf-8"?>
<!-- Generator: Adobe Illustrator 22.1.0, SVG Export Plug-In . SVG Version: 6.00 Build 0)  -->
<svg version="1.1" id="Layer_1" xmlns="http://www.w3.org/2000/svg" xmlns:xlink="http://www.w3.org/1999/xlink" x="0px" y="0px"
	 viewBox="0 0 920.5 99.8" style="enable-background:new 0 0 920.5 99.8;" xml:space="preserve">
<style type="text/css">
	.st0{fill:#333333;}
</style>
<g>
	<path class="st0" d="M37.7,16.9v53.7h20.7v13H22.3V16.9H37.7z"/>
	<path class="st0" d="M224.1,25.1c6.3,6.1,10.4,14.9,10.4,25.2c0,8.9-3.2,18-10.4,25c-6.2,6-14.6,9.8-25.8,9.8c-12.5,0-21-5-26-9.8
		c-6.4-6-10.4-15-10.4-24.8c0-9.6,4.3-19.3,10.3-25.3c4.5-4.5,12.8-9.8,26.1-9.8C208.7,15.4,217.4,18.6,224.1,25.1z M183.6,35.3
		c-2.9,2.8-5.9,7.7-5.9,15.1c0,6.1,2,11,6.1,15c4.3,4.1,9.1,5.5,14.3,5.5c6.8,0,11.6-2.5,14.8-5.7c2.6-2.5,5.8-7.2,5.8-14.9
		c0-6.9-2.8-12-5.8-15c-3.3-3.2-8.6-5.7-14.7-5.7C192.4,29.6,187.2,31.7,183.6,35.3z"/>
	<path class="st0" d="M342.9,83.6l10.7-66.7h12.8L383,56.8l16.6-39.9h12.8l10.7,66.7h-15.4l-5.3-39.8l-16.7,39.8h-5.4l-16.7-39.8
		l-5.3,39.8H342.9z"/>
	<path class="st0" d="M591,56.4c0,6.4-0.8,14.3-7.4,21.1c-6.4,6.6-13.8,7.6-20.8,7.6c-7,0-14.4-1-20.8-7.6
		c-6.6-6.8-7.4-14.7-7.4-21.1V16.9H550V56c0,2.9,0.2,7.8,3.5,11.2c2.7,2.9,6.4,3.5,9.3,3.5c2.9,0,6.6-0.6,9.3-3.5
		c3.3-3.4,3.5-8.3,3.5-11.2V16.9H591V56.4z"/>
	<path class="st0" d="M740,33.2c-5-4.5-9.3-4.8-11.2-4.8c-2.1,0-4.7,0.3-6.5,2.3c-1,1-1.7,2.5-1.7,4.2c0,1.6,0.5,2.8,1.5,3.7
		c1.6,1.5,3.9,2.1,8.4,3.8l5,1.9c2.9,1.1,6.5,2.6,9.1,5.1c3.9,3.7,4.9,8.5,4.9,12.4c0,6.9-2.4,12.9-5.9,16.5
		c-5.9,6.2-14.5,6.8-18.9,6.8c-4.8,0-9-0.7-13.2-2.8c-3.4-1.7-7.3-4.8-9.8-7.3l8-11c1.7,1.7,4.4,4,6.2,5.1c2.6,1.6,5.3,2.4,8.4,2.4
		c2,0,4.8-0.4,7-2.3c1.3-1.1,2.4-2.9,2.4-5.4c0-2.2-0.9-3.6-2.3-4.8c-1.8-1.5-5.9-3-7.8-3.7l-5.5-1.9c-3.1-1.1-6.7-2.5-9.3-5.3
		c-3.5-3.7-4-8.4-4-11.6c0-5.9,1.8-10.9,5.8-15c4.7-4.8,10.3-6.1,16.5-6.1c4.6,0,12,0.8,19.8,6.6L740,33.2z"/>
	<path class="st0" d="M898.3,29.9H876v12.9h21.2v13H876v14.8h22.3v13h-37.7V16.9h37.7V29.9z"/>
</g>
</svg>
