<?xml version="1.0" encoding="utf-8"?>
<!-- Generator: Adobe Illustrator 24.1.0, SVG Export Plug-In . SVG Version: 6.00 Build 0)  -->
<svg version="1.1" id="Layer_1" xmlns="http://www.w3.org/2000/svg" xmlns:xlink="http://www.w3.org/1999/xlink" x="0px" y="0px"
	 viewBox="0 0 657.7 145.3" style="enable-background:new 0 0 657.7 145.3;" xml:space="preserve">
<style type="text/css">
	.st0{fill:#555555;}
	.st1{fill:#333333;}
	.st2{fill:#FCB813;}
</style>
<g>
	<g>
		<path class="st0" d="M166.9,127.2c-1.6,1.4-3.8,2.1-6.7,2.1h-3c-6.3,0-10.2-3.8-10.2-9.3v-14.7c0-5.5,3.9-9.3,10.2-9.3h3
			c3.4,0,5.7,1,7.4,2.8c0.9,1,1.6,2.1,2.3,3.4c0.2,0.3,0.2,0.7-0.2,0.9l-5.3,2.5c-0.4,0.2-0.7,0-0.8-0.3c-1-2-2.2-3-3.7-3h-2.8
			c-1.8,0-3.2,1.3-3.2,3V120c0,1.6,1.4,3,3.2,3h2.8c1.4,0,2.7-1,3.7-3c0.2-0.3,0.5-0.5,0.8-0.3l5.3,2.5c0.4,0.2,0.4,0.5,0.2,0.8
			C169.2,124.8,168.1,126.1,166.9,127.2z"/>
		<path class="st0" d="M191.7,129.3h-3c-6.2,0-10.2-3.8-10.2-9.3v-14.7c0-5.5,4-9.3,10.2-9.3h3c6.1,0,10.2,3.7,10.2,9.3V120
			C201.9,125.6,197.8,129.3,191.7,129.3z M194.8,105.3c0-1.6-1.3-3-3.1-3h-3c-1.7,0-3.2,1.4-3.2,3V120c0,1.6,1.4,3,3.2,3h3
			c1.8,0,3.1-1.3,3.1-3V105.3z"/>
		<path class="st0" d="M240,128.8h-5.9c-0.4,0-0.5-0.2-0.5-0.5v-5.9c0-4.4,0.2-8.6,0.5-11l-0.2-0.1c-0.2,1.1-0.7,3-1.3,4.3l-3.5,8.6
			c-0.1,0.3-0.4,0.4-0.7,0.4h-3.7c-0.3,0-0.6-0.1-0.7-0.4l-3.5-8.6c-0.6-1.5-1.1-3-1.3-4.3l-0.2,0.1c0.2,1.8,0.5,6.5,0.5,10.9v6
			c0,0.4-0.2,0.5-0.5,0.5h-5.9c-0.3,0-0.5-0.2-0.5-0.5V97.2c0-0.4,0.2-0.5,0.5-0.5h5.8c0.2,0,0.4,0.1,0.5,0.3l6.4,15.9
			c0.3,0.7,0.6,1.8,0.6,2.2h0.2c0.1-0.4,0.4-1.5,0.7-2.2l6.4-15.9c0.1-0.2,0.3-0.3,0.5-0.3h5.8c0.3,0,0.5,0.2,0.5,0.5v31.1
			C240.5,128.6,240.3,128.8,240,128.8z"/>
		<path class="st0" d="M263.8,115.7h-4.1c-0.4,0-0.6,0.2-0.6,0.5v12.1c0,0.4-0.2,0.5-0.5,0.5h-6.1c-0.3,0-0.5-0.2-0.5-0.5V97.2
			c0-0.4,0.2-0.5,0.5-0.5h11.3c6.2,0,10.1,3.8,10.1,9.8C274,111.7,270,115.7,263.8,115.7z M266.9,106c0-1.5-1.4-3-3.1-3h-4.1
			c-0.4,0-0.6,0.2-0.6,0.6v5.2c0,0.4,0.2,0.5,0.6,0.5h4.1c1.7,0,3.1-1.4,3.1-2.9V106z"/>
		<path class="st0" d="M302.8,128.8h-6.5c-0.3,0-0.4-0.1-0.5-0.4l-1.4-4.6c-0.1-0.3-0.2-0.3-0.6-0.3h-6.7c-0.4,0-0.5,0.1-0.6,0.3
			l-1.5,4.6c-0.1,0.3-0.2,0.4-0.5,0.4h-6.4c-0.5,0-0.7-0.3-0.5-0.7l10-31.1c0.1-0.3,0.2-0.4,0.5-0.4h4.5c0.3,0,0.4,0.1,0.5,0.4
			l10,31.1C303.5,128.5,303.3,128.8,302.8,128.8z M291.5,113.1c-0.5-1.9-0.8-4.1-0.9-5.5h-0.2c-0.1,1.3-0.5,3.6-1,5.5l-1.1,4.1
			c-0.1,0.3,0.1,0.6,0.6,0.6h3.1c0.5,0,0.7-0.3,0.6-0.6L291.5,113.1z"/>
		<path class="st0" d="M333.8,128.8h-5.2c-0.2,0-0.5-0.2-0.6-0.4l-8.4-15.4c-0.4-0.8-0.9-1.9-1.1-2.5l-0.2,0.1
			c0.2,1.8,0.3,5.8,0.3,10.5v7.1c0,0.4-0.2,0.5-0.5,0.5h-6c-0.3,0-0.5-0.2-0.5-0.5v-31c0-0.4,0.2-0.5,0.5-0.5h5.3
			c0.3,0,0.5,0.1,0.6,0.3l8.4,15.6c0.4,0.8,0.9,2,1.1,2.5l0.2-0.1c-0.1-2-0.3-6.4-0.3-10.6v-7.2c0-0.4,0.1-0.5,0.5-0.5h5.9
			c0.3,0,0.5,0.2,0.5,0.5v31.1C334.3,128.6,334.2,128.8,333.8,128.8z"/>
		<path class="st0" d="M358.1,114.3v14c0,0.4-0.1,0.5-0.5,0.5h-6.1c-0.4,0-0.5-0.2-0.5-0.5v-14l-9.5-16.8c-0.3-0.4-0.1-0.8,0.4-0.8
			h7c0.3,0,0.5,0.1,0.7,0.4l4.4,8.7c0.3,0.5,0.8,0.5,1,0l4.5-8.7c0.2-0.3,0.4-0.4,0.6-0.4h6.9c0.5,0,0.7,0.3,0.4,0.8L358.1,114.3z"
			/>
		<path class="st0" d="M410.9,103.2l-5.3,2.5c-0.4,0.2-0.7,0-0.8-0.3c-1-2-2.2-3-3.6-3h-3.5c-1.8,0-3.2,1.3-3.2,3v14.7
			c0,1.6,1.4,3,3.2,3h3c1.8,0,3.1-1.3,3.1-3v-2.2c0-0.4-0.2-0.5-0.6-0.5h-4.3c-0.3,0-0.5-0.2-0.5-0.5V112c0-0.4,0.2-0.5,0.5-0.5
			h11.5c0.4,0,0.5,0.2,0.5,0.5v8.1c0,5.7-3.9,9.3-10.2,9.3h-3c-6.4,0-10.2-3.7-10.2-9.3v-14.7c0-5.5,3.9-9.3,10.2-9.3h3.7
			c3.1,0,5.2,0.8,6.9,2.3c1.1,1,2,2.3,2.9,4C411.3,102.7,411.3,103,410.9,103.2z"/>
		<path class="st0" d="M441.3,128.8h-19.5c-0.3,0-0.5-0.2-0.5-0.5V97.2c0-0.4,0.2-0.5,0.5-0.5h19.5c0.3,0,0.5,0.2,0.5,0.5v5.3
			c0,0.4-0.2,0.5-0.5,0.5H429c-0.4,0-0.6,0.2-0.6,0.6v5.2c0,0.4,0.2,0.5,0.6,0.5h10.1c0.3,0,0.5,0.2,0.5,0.5v5.3
			c0,0.4-0.2,0.5-0.5,0.5H429c-0.4,0-0.6,0.2-0.6,0.5v5.7c0,0.4,0.2,0.5,0.6,0.5h12.3c0.3,0,0.5,0.2,0.5,0.5v5.3
			C441.8,128.6,441.6,128.8,441.3,128.8z"/>
		<path class="st0" d="M474.2,128.8h-6.5c-0.3,0-0.4-0.1-0.5-0.4l-1.4-4.6c-0.1-0.3-0.2-0.3-0.6-0.3h-6.7c-0.4,0-0.5,0.1-0.6,0.3
			l-1.5,4.6c-0.1,0.3-0.2,0.4-0.5,0.4h-6.4c-0.5,0-0.7-0.3-0.5-0.7L459,97c0.1-0.3,0.2-0.4,0.5-0.4h4.5c0.3,0,0.4,0.1,0.5,0.4
			l10,31.1C474.8,128.5,474.7,128.8,474.2,128.8z M462.9,113.1c-0.5-1.9-0.8-4.1-0.9-5.5h-0.2c-0.1,1.3-0.5,3.6-1,5.5l-1.1,4.1
			c-0.1,0.3,0.1,0.6,0.6,0.6h3.1c0.5,0,0.7-0.3,0.6-0.6L462.9,113.1z"/>
		<path class="st0" d="M506.8,128.8h-6.6c-0.2,0-0.4-0.2-0.5-0.4l-4.5-12.4c-0.1-0.2-0.3-0.3-0.5-0.3h-4c-0.4,0-0.6,0.2-0.6,0.5
			v12.1c0,0.4-0.2,0.5-0.5,0.5h-6.1c-0.3,0-0.5-0.2-0.5-0.5V97.2c0-0.4,0.2-0.5,0.5-0.5h12.7c6.2,0,10.2,3.7,10.2,9.7v0.5
			c0,2.9-1.8,5.6-3.9,7c-0.3,0.2-0.4,0.5-0.3,0.8l4.9,13.4C507.4,128.5,507.3,128.8,506.8,128.8z M499.5,106c0-1.7-1.3-3-3.2-3h-5.6
			c-0.4,0-0.6,0.2-0.6,0.6v5.4c0,0.4,0.2,0.6,0.6,0.6h5.6c1.8,0,3.2-1.2,3.2-2.9V106z"/>
	</g>
	<g>
		<path class="st1" d="M170,31.1c5.6,0,35.3,0,35.3,0V19.4c0,0-28.9,0-32.8,0c-17.3,0-28.1,11.1-28.1,26.6s11.6,26.5,28.9,26.4
			c3.9,0,32,0,32,0V60.8c0,0-30,0-35.7,0c-5.2,0-11.9-6.5-11.9-14.8C157.7,37.6,164.4,31.1,170,31.1z"/>
	</g>
	<g>
		<g>
			<rect x="353.2" y="6.2" class="st1" width="13.1" height="66.3"/>
		</g>
		<g>
			<path class="st1" d="M372.5,31.9c2.1-0.7,8.3-4.1,17.7-2.3c9.4,1.8,15.7,12.5,3.5,39.8c-2,3.7,3.6,4.2,3.6,4.2l9-1.1
				c0,0,15-31.6,3.2-45s-35.9-8-37.5-7C368.6,22.7,370.4,32.6,372.5,31.9"/>
		</g>
	</g>
	<g>
		<polygon class="st1" points="601.4,19.4 583.1,19.4 583.1,9.5 569.8,9.5 569.8,19.4 558.3,19.4 558.3,31.6 569.8,31.6 569.8,72.5 
			583.1,72.5 583.1,31.6 601.4,31.6 		"/>
	</g>
	<g>
		<polygon class="st1" points="652.8,19.4 634.5,19.4 634.5,9.5 621.2,9.5 621.2,19.4 609.7,19.4 609.7,31.6 621.2,31.6 621.2,72.5 
			634.5,72.5 634.5,31.6 652.8,31.6 		"/>
	</g>
	<g>
		<g>
			<path class="st1" d="M281.9,36.5c0-7.8-6.7-17.1-19.7-17.1h-42.7v11.7h42.6c4.1,0,6.5,2.3,6.5,5.2v24.4c0,0-34.9,0-37.8,0
				c-4,0-6.5-2.4-6.5-5.4s2.4-5.2,6.5-5.2H264V38.9c0,0-24.2,0-33.2,0c-13,0-19.7,9.3-19.7,17.1c0,9.8,9,16.5,19.9,16.4
				c2.7,0,50.9,0,50.9,0V36.5L281.9,36.5z"/>
		</g>
	</g>
	<g>
		<g>
			<path class="st1" d="M489.5,36.5c0-7.8-6.7-17.1-19.7-17.1h-42.7v11.7h42.6c4.1,0,6.5,2.3,6.5,5.2v24.4c0,0-34.9,0-37.8,0
				c-4,0-6.5-2.4-6.5-5.4s2.4-5.2,6.5-5.2h33.1V38.9c0,0-24.2,0-33.2,0c-13,0-19.7,9.3-19.7,17.1c0,9.8,9,16.5,19.9,16.4
				c2.7,0,50.9,0,50.9,0V36.6v-0.1H489.5z"/>
		</g>
	</g>
	<g>
		<g>
			<rect x="290.2" y="19.4" class="st1" width="13.2" height="53.1"/>
		</g>
		<g>
			<path class="st1" d="M309.4,32.1c2.1-0.7,5.3-4.1,14.7-2.3c6,1.2,9.6,5.4,9.2,15.8c-0.1,2.8,12.5,1.8,12.5-0.3
				c0.1-8.5,1.1-14.6-6.2-21.3c-9-8.2-29.3-4.3-30.8-3.3C305.6,22.8,307.3,32.7,309.4,32.1"/>
		</g>
	</g>
	<g>
		<g>
			<rect x="497.8" y="19.4" class="st1" width="13.2" height="53.1"/>
		</g>
		<g>
			<path class="st1" d="M517,32.1c2.1-0.7,5.3-4.1,14.7-2.3c6,1.2,9.6,5.4,9.2,15.8c-0.1,2.8,12.5,1.8,12.5-0.3
				c0.1-8.5,1.1-14.6-6.2-21.3c-9-8.2-29.2-4.3-30.8-3.3C513.1,22.8,514.9,32.7,517,32.1"/>
		</g>
	</g>
	<g id="C_In_Back_22_">
		<g>
			<path class="st2" d="M81.7,65.9C70.5,62.5,64.4,50.2,68,38.4c1.2-4.1,3.5-7.6,6.3-10.3c0,0,7.5-7.3,19.2-3.3c-0.1,0-0.3,0-0.4,0
				c-7.1,0-12.9,6.4-12.9,14.2S86,53.2,93.1,53.2c5.6,0,10.4-4,12.1-9.5l0,0c0,0,0.4-1.2,0.7-3.1c0-0.3,0.1-0.7,0.1-0.7
				c0.4-4.9-0.4-13.7-10.1-20.7C82.7,10,64.3,11,64.3,11C31.5,11,4.9,38.1,4.9,71.6s26.6,60.6,59.4,60.6h44.1V50.7
				C104.8,62.5,92.8,69.3,81.7,65.9"/>
		</g>
	</g>
</g>
</svg>
